<?xml version="1.0" standalone="no"?>
<!DOCTYPE svg PUBLIC "-//W3C//DTD SVG 20010904//EN"
 "http://www.w3.org/TR/2001/REC-SVG-20010904/DTD/svg10.dtd">
<svg version="1.0" xmlns="http://www.w3.org/2000/svg"
 width="16.000000pt" height="16.000000pt" viewBox="0 0 16.000000 16.000000"
 preserveAspectRatio="xMidYMid meet">
<metadata>
Created by potrace 1.11, written by Peter Selinger 2001-2013
</metadata>
<g transform="translate(0.000000,16.000000) scale(0.006154,-0.006154)"
fill="#000000" stroke="none">
<path d="M645 1956 c-481 -481 -643 -649 -639 -661 8 -21 1267 -1280 1287
-1288 11 -4 221 200 661 640 355 355 646 649 646 653 0 12 -1289 1300 -1301
1300 -5 0 -299 -290 -654 -644z m739 311 c100 -100 102 -88 -23 -211 -59 -58
-115 -106 -123 -106 -16 0 -158 142 -158 158 0 17 209 222 226 222 8 0 43 -28
78 -63z m403 -401 c145 -145 263 -270 263 -277 0 -8 -230 -244 -512 -526 -443
-443 -514 -510 -530 -502 -29 16 -538 528 -538 541 0 7 49 61 109 121 93 93
112 107 127 99 11 -6 100 -92 198 -191 l179 -181 285 286 285 285 -107 108
-108 109 -264 -264 c-146 -145 -269 -264 -274 -264 -14 0 -160 148 -160 162 0
21 743 758 764 758 13 0 118 -98 283 -264z m-659 119 c58 -61 71 -79 63 -93
-5 -9 -54 -61 -109 -116 -77 -75 -104 -97 -119 -92 -22 7 -153 139 -153 155 0
18 209 221 228 221 10 0 51 -34 90 -75z m-272 -270 c62 -61 73 -78 65 -92 -15
-28 -207 -213 -220 -213 -7 0 -46 34 -87 75 -68 67 -74 76 -64 96 19 34 199
209 216 209 9 0 49 -34 90 -75z m-279 -257 c36 -35 69 -71 75 -81 8 -16 -8
-36 -98 -128 -59 -60 -113 -109 -120 -109 -7 0 -46 34 -88 75 -69 69 -75 77
-65 97 19 35 198 208 215 208 9 0 45 -28 81 -62z m830 -830 c63 -62 119 -121
125 -132 8 -15 -6 -34 -99 -127 -60 -60 -114 -109 -121 -109 -18 0 -252 239
-252 257 0 19 201 223 220 223 7 0 64 -51 127 -112z"/>
</g>
</svg>
